{
 "cells": [
  {
   "cell_type": "code",
   "execution_count": 20,
   "id": "75be4222-14ce-4af3-895b-8af43827e7d8",
   "metadata": {},
   "outputs": [],
   "source": [
    "import uuid\n",
    "import os\n",
    "import tempfile\n",
    "\n",
    "import ffmpeg\n",
    "# NOTE: need to make sure ffmpeg cli is installed"
   ]
  },
  {
   "cell_type": "code",
   "execution_count": 26,
   "id": "a61fe004-d8a1-44c3-87b2-dd10197fc6f3",
   "metadata": {},
   "outputs": [],
   "source": [
    "def make_video_clip(input_video_filename, output_video_filename, start_time, end_time):\n",
    "    ffmpeg.input(input_video_filename, ss=start_time, to=end_time).output(output_video_filename).run(overwrite_output=True)"
   ]
  },
  {
   "cell_type": "code",
   "execution_count": 51,
   "id": "5bad544b-9d0b-484b-a78d-5cc625b71f70",
   "metadata": {},
   "outputs": [],
   "source": [
    "def combine_timestamps(input_video_filename, output_video_filename, timestamp_windows):\n",
    "    # create clips of video for timestamp windows and save to temp dir\n",
    "    # combine clips into video\n",
    "    with tempfile.TemporaryDirectory() as tempdir:\n",
    "        # generate clips from source video by time stamp window\n",
    "        outfiles = []\n",
    "        \n",
    "        for window in timestamp_windows:\n",
    "            out = f\"{tempdir}/{str(uuid.uuid4())[:8]}.mp4\"\n",
    "\n",
    "            make_video_clip(input_video_filename, out, window[0], window[1])\n",
    "            outfiles.append(f\"file {out}\")\n",
    "\n",
    "        # Combine outfile paths into a txt file\n",
    "        combined_file = f\"{tempdir}/{str(uuid.uuid4())[:8]}.txt\"\n",
    "\n",
    "        with open(combined_file, \"w\") as fp:\n",
    "            fp.write(\"\\n\".join(outfiles))\n",
    "\n",
    "        # Combine clips using source files\n",
    "        ffmpeg.input(combined_file, format='concat', safe=0).output(output_video_filename, c='copy').run(overwrite_output=True)"
   ]
  },
  {
   "cell_type": "code",
   "execution_count": 53,
   "id": "77ce924c-53ce-4be7-8a73-b4cda0bf1ecd",
   "metadata": {},
   "outputs": [
    {
     "name": "stderr",
     "output_type": "stream",
     "text": [
      "ffmpeg version 6.1.1 Copyright (c) 2000-2023 the FFmpeg developers\n",
      "  built with Apple clang version 14.0.0 (clang-1400.0.29.202)\n",
      "  configuration: --prefix=/opt/homebrew/Cellar/ffmpeg/6.1.1_7 --enable-shared --enable-pthreads --enable-version3 --cc=clang --host-cflags= --host-ldflags= --enable-ffplay --enable-gnutls --enable-gpl --enable-libaom --enable-libaribb24 --enable-libbluray --enable-libdav1d --enable-libharfbuzz --enable-libjxl --enable-libmp3lame --enable-libopus --enable-librav1e --enable-librist --enable-librubberband --enable-libsnappy --enable-libsrt --enable-libssh --enable-libsvtav1 --enable-libtesseract --enable-libtheora --enable-libvidstab --enable-libvmaf --enable-libvorbis --enable-libvpx --enable-libwebp --enable-libx264 --enable-libx265 --enable-libxml2 --enable-libxvid --enable-lzma --enable-libfontconfig --enable-libfreetype --enable-frei0r --enable-libass --enable-libopencore-amrnb --enable-libopencore-amrwb --enable-libopenjpeg --enable-libopenvino --enable-libspeex --enable-libsoxr --enable-libzmq --enable-libzimg --disable-libjack --disable-indev=jack --enable-videotoolbox --enable-audiotoolbox --enable-neon\n",
      "  libavutil      58. 29.100 / 58. 29.100\n",
      "  libavcodec     60. 31.102 / 60. 31.102\n",
      "  libavformat    60. 16.100 / 60. 16.100\n",
      "  libavdevice    60.  3.100 / 60.  3.100\n",
      "  libavfilter     9. 12.100 /  9. 12.100\n",
      "  libswscale      7.  5.100 /  7.  5.100\n",
      "  libswresample   4. 12.100 /  4. 12.100\n",
      "  libpostproc    57.  3.100 / 57.  3.100\n",
      "Input #0, mov,mp4,m4a,3gp,3g2,mj2, from 'random/m2-res_640p.mp4':\n",
      "  Metadata:\n",
      "    major_brand     : isom\n",
      "    minor_version   : 512\n",
      "    compatible_brands: isomiso2avc1mp41\n",
      "    encoder         : Lavf59.27.100\n",
      "  Duration: 00:00:19.24, start: 0.000000, bitrate: 548 kb/s\n",
      "  Stream #0:0[0x1](und): Video: h264 (Main) (avc1 / 0x31637661), yuv420p(tv, bt709, progressive), 360x640 [SAR 1:1 DAR 9:16], 413 kb/s, 30 fps, 30 tbr, 15360 tbn (default)\n",
      "    Metadata:\n",
      "      handler_name    : VideoHandler\n",
      "      vendor_id       : [0][0][0][0]\n",
      "      encoder         : AVC Coding\n",
      "  Stream #0:1[0x2](und): Audio: aac (LC) (mp4a / 0x6134706D), 48000 Hz, stereo, fltp, 127 kb/s (default)\n",
      "    Metadata:\n",
      "      handler_name    : SoundHandler\n",
      "      vendor_id       : [0][0][0][0]\n",
      "Stream mapping:\n",
      "  Stream #0:0 -> #0:0 (h264 (native) -> h264 (libx264))\n",
      "  Stream #0:1 -> #0:1 (aac (native) -> aac (native))\n",
      "Press [q] to stop, [?] for help\n",
      "[libx264 @ 0x13a7089e0] using SAR=1/1\n",
      "[libx264 @ 0x13a7089e0] using cpu capabilities: ARMv8 NEON\n",
      "[libx264 @ 0x13a7089e0] profile High, level 3.0, 4:2:0, 8-bit\n",
      "[libx264 @ 0x13a7089e0] 264 - core 164 r3108 31e19f9 - H.264/MPEG-4 AVC codec - Copyleft 2003-2023 - http://www.videolan.org/x264.html - options: cabac=1 ref=3 deblock=1:0:0 analyse=0x3:0x113 me=hex subme=7 psy=1 psy_rd=1.00:0.00 mixed_ref=1 me_range=16 chroma_me=1 trellis=1 8x8dct=1 cqm=0 deadzone=21,11 fast_pskip=1 chroma_qp_offset=-2 threads=15 lookahead_threads=2 sliced_threads=0 nr=0 decimate=1 interlaced=0 bluray_compat=0 constrained_intra=0 bframes=3 b_pyramid=2 b_adapt=1 b_bias=0 direct=1 weightb=1 open_gop=0 weightp=2 keyint=250 keyint_min=25 scenecut=40 intra_refresh=0 rc_lookahead=40 rc=crf mbtree=1 crf=23.0 qcomp=0.60 qpmin=0 qpmax=69 qpstep=4 ip_ratio=1.40 aq=1:1.00\n",
      "Output #0, mp4, to '/var/folders/fb/y8c4qgzx1qx0nnnhwcvm9h4c0000gp/T/tmp1ssk4hkm/5726ee9c.mp4':\n",
      "  Metadata:\n",
      "    major_brand     : isom\n",
      "    minor_version   : 512\n",
      "    compatible_brands: isomiso2avc1mp41\n",
      "    encoder         : Lavf60.16.100\n",
      "  Stream #0:0(und): Video: h264 (avc1 / 0x31637661), yuv420p(tv, bt709, progressive), 360x640 [SAR 1:1 DAR 9:16], q=2-31, 30 fps, 15360 tbn (default)\n",
      "    Metadata:\n",
      "      handler_name    : VideoHandler\n",
      "      vendor_id       : [0][0][0][0]\n",
      "      encoder         : Lavc60.31.102 libx264\n",
      "    Side data:\n",
      "      cpb: bitrate max/min/avg: 0/0/0 buffer size: 0 vbv_delay: N/A\n",
      "  Stream #0:1(und): Audio: aac (LC) (mp4a / 0x6134706D), 48000 Hz, stereo, fltp, 128 kb/s (default)\n",
      "    Metadata:\n",
      "      handler_name    : SoundHandler\n",
      "      vendor_id       : [0][0][0][0]\n",
      "      encoder         : Lavc60.31.102 aac\n",
      "[out#0/mp4 @ 0x13a707970] video:69kB audio:16kB subtitle:0kB other streams:0kB global headers:0kB muxing overhead: 2.903543%\n",
      "frame=   30 fps=0.0 q=-1.0 Lsize=      88kB time=00:00:00.98 bitrate= 733.0kbits/s speed=11.2x    \n",
      "[libx264 @ 0x13a7089e0] frame I:1     Avg QP:23.03  size: 17910\n",
      "[libx264 @ 0x13a7089e0] frame P:9     Avg QP:23.95  size:  4479\n",
      "[libx264 @ 0x13a7089e0] frame B:20    Avg QP:26.24  size:   612\n",
      "[libx264 @ 0x13a7089e0] consecutive B-frames:  3.3% 20.0% 10.0% 66.7%\n",
      "[libx264 @ 0x13a7089e0] mb I  I16..4: 20.1% 43.3% 36.6%\n",
      "[libx264 @ 0x13a7089e0] mb P  I16..4:  1.8%  1.0%  2.4%  P16..4: 46.3% 13.8%  7.4%  0.0%  0.0%    skip:27.4%\n",
      "[libx264 @ 0x13a7089e0] mb B  I16..4:  0.0%  0.0%  0.0%  B16..8: 29.6%  3.3%  0.8%  direct: 0.3%  skip:65.8%  L0:44.7% L1:43.3% BI:11.9%\n",
      "[libx264 @ 0x13a7089e0] 8x8 transform intra:35.4% inter:38.3%\n",
      "[libx264 @ 0x13a7089e0] coded y,uvDC,uvAC intra: 57.2% 67.8% 20.0% inter: 5.3% 5.7% 0.3%\n",
      "[libx264 @ 0x13a7089e0] i16 v,h,dc,p: 18% 20% 11% 50%\n",
      "[libx264 @ 0x13a7089e0] i8 v,h,dc,ddl,ddr,vr,hd,vl,hu: 11% 41% 18%  5%  3%  3%  8%  3%  7%\n",
      "[libx264 @ 0x13a7089e0] i4 v,h,dc,ddl,ddr,vr,hd,vl,hu: 21% 31% 15%  4%  7%  7%  7%  4%  5%\n",
      "[libx264 @ 0x13a7089e0] i8c dc,h,v,p: 45% 34% 16%  6%\n",
      "[libx264 @ 0x13a7089e0] Weighted P-Frames: Y:0.0% UV:0.0%\n",
      "[libx264 @ 0x13a7089e0] ref P L0: 72.4% 13.0% 10.8%  3.8%\n",
      "[libx264 @ 0x13a7089e0] ref B L0: 96.9%  2.9%  0.2%\n",
      "[libx264 @ 0x13a7089e0] ref B L1: 99.3%  0.7%\n",
      "[libx264 @ 0x13a7089e0] kb/s:563.68\n",
      "[aac @ 0x13a772ee0] Qavg: 328.476\n",
      "ffmpeg version 6.1.1 Copyright (c) 2000-2023 the FFmpeg developers\n",
      "  built with Apple clang version 14.0.0 (clang-1400.0.29.202)\n",
      "  configuration: --prefix=/opt/homebrew/Cellar/ffmpeg/6.1.1_7 --enable-shared --enable-pthreads --enable-version3 --cc=clang --host-cflags= --host-ldflags= --enable-ffplay --enable-gnutls --enable-gpl --enable-libaom --enable-libaribb24 --enable-libbluray --enable-libdav1d --enable-libharfbuzz --enable-libjxl --enable-libmp3lame --enable-libopus --enable-librav1e --enable-librist --enable-librubberband --enable-libsnappy --enable-libsrt --enable-libssh --enable-libsvtav1 --enable-libtesseract --enable-libtheora --enable-libvidstab --enable-libvmaf --enable-libvorbis --enable-libvpx --enable-libwebp --enable-libx264 --enable-libx265 --enable-libxml2 --enable-libxvid --enable-lzma --enable-libfontconfig --enable-libfreetype --enable-frei0r --enable-libass --enable-libopencore-amrnb --enable-libopencore-amrwb --enable-libopenjpeg --enable-libopenvino --enable-libspeex --enable-libsoxr --enable-libzmq --enable-libzimg --disable-libjack --disable-indev=jack --enable-videotoolbox --enable-audiotoolbox --enable-neon\n",
      "  libavutil      58. 29.100 / 58. 29.100\n",
      "  libavcodec     60. 31.102 / 60. 31.102\n",
      "  libavformat    60. 16.100 / 60. 16.100\n",
      "  libavdevice    60.  3.100 / 60.  3.100\n",
      "  libavfilter     9. 12.100 /  9. 12.100\n",
      "  libswscale      7.  5.100 /  7.  5.100\n",
      "  libswresample   4. 12.100 /  4. 12.100\n",
      "  libpostproc    57.  3.100 / 57.  3.100\n",
      "Input #0, mov,mp4,m4a,3gp,3g2,mj2, from 'random/m2-res_640p.mp4':\n",
      "  Metadata:\n",
      "    major_brand     : isom\n",
      "    minor_version   : 512\n",
      "    compatible_brands: isomiso2avc1mp41\n",
      "    encoder         : Lavf59.27.100\n",
      "  Duration: 00:00:19.24, start: 0.000000, bitrate: 548 kb/s\n",
      "  Stream #0:0[0x1](und): Video: h264 (Main) (avc1 / 0x31637661), yuv420p(tv, bt709, progressive), 360x640 [SAR 1:1 DAR 9:16], 413 kb/s, 30 fps, 30 tbr, 15360 tbn (default)\n",
      "    Metadata:\n",
      "      handler_name    : VideoHandler\n",
      "      vendor_id       : [0][0][0][0]\n",
      "      encoder         : AVC Coding\n",
      "  Stream #0:1[0x2](und): Audio: aac (LC) (mp4a / 0x6134706D), 48000 Hz, stereo, fltp, 127 kb/s (default)\n",
      "    Metadata:\n",
      "      handler_name    : SoundHandler\n",
      "      vendor_id       : [0][0][0][0]\n",
      "Stream mapping:\n",
      "  Stream #0:0 -> #0:0 (h264 (native) -> h264 (libx264))\n",
      "  Stream #0:1 -> #0:1 (aac (native) -> aac (native))\n",
      "Press [q] to stop, [?] for help\n",
      "[libx264 @ 0x11fe08f20] using SAR=1/1\n",
      "[libx264 @ 0x11fe08f20] using cpu capabilities: ARMv8 NEON\n",
      "[libx264 @ 0x11fe08f20] profile High, level 3.0, 4:2:0, 8-bit\n",
      "[libx264 @ 0x11fe08f20] 264 - core 164 r3108 31e19f9 - H.264/MPEG-4 AVC codec - Copyleft 2003-2023 - http://www.videolan.org/x264.html - options: cabac=1 ref=3 deblock=1:0:0 analyse=0x3:0x113 me=hex subme=7 psy=1 psy_rd=1.00:0.00 mixed_ref=1 me_range=16 chroma_me=1 trellis=1 8x8dct=1 cqm=0 deadzone=21,11 fast_pskip=1 chroma_qp_offset=-2 threads=15 lookahead_threads=2 sliced_threads=0 nr=0 decimate=1 interlaced=0 bluray_compat=0 constrained_intra=0 bframes=3 b_pyramid=2 b_adapt=1 b_bias=0 direct=1 weightb=1 open_gop=0 weightp=2 keyint=250 keyint_min=25 scenecut=40 intra_refresh=0 rc_lookahead=40 rc=crf mbtree=1 crf=23.0 qcomp=0.60 qpmin=0 qpmax=69 qpstep=4 ip_ratio=1.40 aq=1:1.00\n",
      "Output #0, mp4, to '/var/folders/fb/y8c4qgzx1qx0nnnhwcvm9h4c0000gp/T/tmp1ssk4hkm/f1d0df00.mp4':\n",
      "  Metadata:\n",
      "    major_brand     : isom\n",
      "    minor_version   : 512\n",
      "    compatible_brands: isomiso2avc1mp41\n",
      "    encoder         : Lavf60.16.100\n",
      "  Stream #0:0(und): Video: h264 (avc1 / 0x31637661), yuv420p(tv, bt709, progressive), 360x640 [SAR 1:1 DAR 9:16], q=2-31, 30 fps, 15360 tbn (default)\n",
      "    Metadata:\n",
      "      handler_name    : VideoHandler\n",
      "      vendor_id       : [0][0][0][0]\n",
      "      encoder         : Lavc60.31.102 libx264\n",
      "    Side data:\n",
      "      cpb: bitrate max/min/avg: 0/0/0 buffer size: 0 vbv_delay: N/A\n",
      "  Stream #0:1(und): Audio: aac (LC) (mp4a / 0x6134706D), 48000 Hz, stereo, fltp, 128 kb/s (default)\n",
      "    Metadata:\n",
      "      handler_name    : SoundHandler\n",
      "      vendor_id       : [0][0][0][0]\n",
      "      encoder         : Lavc60.31.102 aac\n",
      "[out#0/mp4 @ 0x11fe07f30] video:409kB audio:144kB subtitle:0kB other streams:0kB global headers:0kB muxing overhead: 1.977583%\n",
      "frame=  275 fps=0.0 q=-1.0 Lsize=     564kB time=00:00:09.23 bitrate= 500.6kbits/s speed=25.1x    \n",
      "[libx264 @ 0x11fe08f20] frame I:2     Avg QP:20.74  size: 10999\n",
      "[libx264 @ 0x11fe08f20] frame P:117   Avg QP:22.36  size:  2597\n",
      "[libx264 @ 0x11fe08f20] frame B:156   Avg QP:23.03  size:   593\n",
      "[libx264 @ 0x11fe08f20] consecutive B-frames: 14.5% 24.0% 16.4% 45.1%\n",
      "[libx264 @ 0x11fe08f20] mb I  I16..4: 30.5% 43.2% 26.4%\n",
      "[libx264 @ 0x11fe08f20] mb P  I16..4:  7.0%  5.0%  2.0%  P16..4: 48.5%  7.9%  2.0%  0.0%  0.0%    skip:27.7%\n",
      "[libx264 @ 0x11fe08f20] mb B  I16..4:  0.3%  0.2%  0.1%  B16..8: 31.0%  2.0%  0.2%  direct: 0.6%  skip:65.6%  L0:44.1% L1:52.3% BI: 3.5%\n",
      "[libx264 @ 0x11fe08f20] 8x8 transform intra:36.7% inter:63.7%\n",
      "[libx264 @ 0x11fe08f20] coded y,uvDC,uvAC intra: 25.8% 46.5% 8.2% inter: 3.6% 8.4% 0.3%\n",
      "[libx264 @ 0x11fe08f20] i16 v,h,dc,p: 22% 29% 14% 35%\n",
      "[libx264 @ 0x11fe08f20] i8 v,h,dc,ddl,ddr,vr,hd,vl,hu: 22% 27% 35%  2%  3%  3%  5%  2%  2%\n",
      "[libx264 @ 0x11fe08f20] i4 v,h,dc,ddl,ddr,vr,hd,vl,hu: 27% 24% 19%  3%  7%  8%  6%  4%  3%\n",
      "[libx264 @ 0x11fe08f20] i8c dc,h,v,p: 58% 24% 14%  4%\n",
      "[libx264 @ 0x11fe08f20] Weighted P-Frames: Y:0.0% UV:0.0%\n",
      "[libx264 @ 0x11fe08f20] ref P L0: 75.5%  9.1% 11.9%  3.5%\n",
      "[libx264 @ 0x11fe08f20] ref B L0: 88.2% 10.2%  1.6%\n",
      "[libx264 @ 0x11fe08f20] ref B L1: 98.7%  1.3%\n",
      "[libx264 @ 0x11fe08f20] kb/s:365.12\n",
      "[aac @ 0x11fe72bd0] Qavg: 614.651\n",
      "ffmpeg version 6.1.1 Copyright (c) 2000-2023 the FFmpeg developers\n",
      "  built with Apple clang version 14.0.0 (clang-1400.0.29.202)\n",
      "  configuration: --prefix=/opt/homebrew/Cellar/ffmpeg/6.1.1_7 --enable-shared --enable-pthreads --enable-version3 --cc=clang --host-cflags= --host-ldflags= --enable-ffplay --enable-gnutls --enable-gpl --enable-libaom --enable-libaribb24 --enable-libbluray --enable-libdav1d --enable-libharfbuzz --enable-libjxl --enable-libmp3lame --enable-libopus --enable-librav1e --enable-librist --enable-librubberband --enable-libsnappy --enable-libsrt --enable-libssh --enable-libsvtav1 --enable-libtesseract --enable-libtheora --enable-libvidstab --enable-libvmaf --enable-libvorbis --enable-libvpx --enable-libwebp --enable-libx264 --enable-libx265 --enable-libxml2 --enable-libxvid --enable-lzma --enable-libfontconfig --enable-libfreetype --enable-frei0r --enable-libass --enable-libopencore-amrnb --enable-libopencore-amrwb --enable-libopenjpeg --enable-libopenvino --enable-libspeex --enable-libsoxr --enable-libzmq --enable-libzimg --disable-libjack --disable-indev=jack --enable-videotoolbox --enable-audiotoolbox --enable-neon\n",
      "  libavutil      58. 29.100 / 58. 29.100\n",
      "  libavcodec     60. 31.102 / 60. 31.102\n",
      "  libavformat    60. 16.100 / 60. 16.100\n",
      "  libavdevice    60.  3.100 / 60.  3.100\n",
      "  libavfilter     9. 12.100 /  9. 12.100\n",
      "  libswscale      7.  5.100 /  7.  5.100\n",
      "  libswresample   4. 12.100 /  4. 12.100\n",
      "  libpostproc    57.  3.100 / 57.  3.100\n",
      "[mov,mp4,m4a,3gp,3g2,mj2 @ 0x134f04f10] Auto-inserting h264_mp4toannexb bitstream filter\n",
      "Input #0, concat, from '/var/folders/fb/y8c4qgzx1qx0nnnhwcvm9h4c0000gp/T/tmp1ssk4hkm/622d3c3a.txt':\n",
      "  Duration: N/A, start: -0.021333, bitrate: 696 kb/s\n",
      "  Stream #0:0(und): Video: h264 (High) (avc1 / 0x31637661), yuv420p(tv, bt709, progressive), 360x640 [SAR 1:1 DAR 9:16], 569 kb/s, 30 fps, 30 tbr, 15360 tbn\n",
      "    Metadata:\n",
      "      handler_name    : VideoHandler\n",
      "      vendor_id       : [0][0][0][0]\n",
      "      encoder         : Lavc60.31.102 libx264\n",
      "  Stream #0:1(und): Audio: aac (LC) (mp4a / 0x6134706D), 48000 Hz, stereo, fltp, 127 kb/s\n",
      "    Metadata:\n",
      "      handler_name    : SoundHandler\n",
      "      vendor_id       : [0][0][0][0]\n",
      "Output #0, mp4, to 'random/out.mp4':\n",
      "  Metadata:\n",
      "    encoder         : Lavf60.16.100\n",
      "  Stream #0:0(und): Video: h264 (High) (avc1 / 0x31637661), yuv420p(tv, bt709, progressive), 360x640 [SAR 1:1 DAR 9:16], q=2-31, 569 kb/s, 30 fps, 30 tbr, 15360 tbn\n",
      "    Metadata:\n",
      "      handler_name    : VideoHandler\n",
      "      vendor_id       : [0][0][0][0]\n",
      "      encoder         : Lavc60.31.102 libx264\n",
      "  Stream #0:1(und): Audio: aac (LC) (mp4a / 0x6134706D), 48000 Hz, stereo, fltp, 127 kb/s\n",
      "    Metadata:\n",
      "      handler_name    : SoundHandler\n",
      "      vendor_id       : [0][0][0][0]\n",
      "Stream mapping:\n",
      "  Stream #0:0 -> #0:0 (copy)\n",
      "  Stream #0:1 -> #0:1 (copy)\n",
      "Press [q] to stop, [?] for help\n",
      "[mov,mp4,m4a,3gp,3g2,mj2 @ 0x134e05f10] Auto-inserting h264_mp4toannexb bitstream filter\n",
      "[mp4 @ 0x124e06fc0] Non-monotonic DTS in output stream 0:1; previous: 48128, current: 48000; changing to 48129. This may result in incorrect timestamps in the output file.\n",
      "[out#0/mp4 @ 0x124e06f00] video:479kB audio:160kB subtitle:0kB other streams:0kB global headers:0kB muxing overhead: 1.888860%\n",
      "size=     651kB time=00:00:10.25 bitrate= 519.9kbits/s speed=1.81e+03x    \n"
     ]
    }
   ],
   "source": [
    "start_time_1 = '00:00:00' # Start time for trimming (HH:MM:SS)\n",
    "end_time_1 = '00:00:5' # End time for trimming (HH:MM:SS)\n",
    "start_time_2 = '00:00:10' # Start time for trimming (HH:MM:SS)\n",
    "end_time_2 = '00:00:15' # End time for trimming (HH:MM:SS)\n",
    "\n",
    "combine_timestamps(\"random/m2-res_640p.mp4\", \"random/out.mp4\", [(start_time_1, end_time_1), (start_time_2, end_time_2)])"
   ]
  },
  {
   "cell_type": "code",
   "execution_count": null,
   "id": "44ba93ac-c733-497b-a827-d9de4f3b48a1",
   "metadata": {},
   "outputs": [],
   "source": []
  }
 ],
 "metadata": {
  "kernelspec": {
   "display_name": "Python 3 (ipykernel)",
   "language": "python",
   "name": "python3"
  },
  "language_info": {
   "codemirror_mode": {
    "name": "ipython",
    "version": 3
   },
   "file_extension": ".py",
   "mimetype": "text/x-python",
   "name": "python",
   "nbconvert_exporter": "python",
   "pygments_lexer": "ipython3",
   "version": "3.11.4"
  }
 },
 "nbformat": 4,
 "nbformat_minor": 5
}
